REM DIRINDEX 1\3,1\2\4,1\2\5,1\2\6
REM DIRNAME cjc137,folder01,folder02,folder03,folder04,folder05
TITLE ""
FILE "076.mp3" MP3
  TRACK 01 AUDIO
    TITLE "4:cjc137_3116"
    INDEX 01 00:00:00
  TRACK 02 AUDIO
    TITLE "0:"
    INDEX 01 00:01:07
  TRACK 03 AUDIO
    TITLE "6:cjc137_3117"
    INDEX 01 00:01:13
  TRACK 04 AUDIO
    TITLE "0:"
    INDEX 01 00:02:22
  TRACK 05 AUDIO
    TITLE "5:cjc137_3118"
    INDEX 01 00:02:28
  TRACK 06 AUDIO
    TITLE "0:"
    INDEX 01 00:03:35
  TRACK 07 AUDIO
    TITLE "4:cjc137_3119"
    INDEX 01 00:04:40
  TRACK 08 AUDIO
    TITLE "0:"
    INDEX 01 00:05:46
  TRACK 09 AUDIO
    TITLE "6:cjc137_3120"
    INDEX 01 00:05:56
  TRACK 10 AUDIO
    TITLE "0:"
    INDEX 01 00:07:13
  TRACK 11 AUDIO
    TITLE "5:cjc137_3121"
    INDEX 01 00:07:17
  TRACK 12 AUDIO
    TITLE "0:"
    INDEX 01 00:08:21
  TRACK 13 AUDIO
    TITLE "4:cjc137_3122"
    INDEX 01 00:09:34
  TRACK 14 AUDIO
    TITLE "0:"
    INDEX 01 00:10:55
  TRACK 15 AUDIO
    TITLE "6:cjc137_3123"
    INDEX 01 00:10:65
  TRACK 16 AUDIO
    TITLE "0:"
    INDEX 01 00:12:11
  TRACK 17 AUDIO
    TITLE "5:cjc137_3124"
    INDEX 01 00:12:16
  TRACK 18 AUDIO
    TITLE "0:"
    INDEX 01 00:13:37
  TRACK 19 AUDIO
    TITLE "4:cjc137_3125"
    INDEX 01 00:14:51
  TRACK 20 AUDIO
    TITLE "0:"
    INDEX 01 00:15:46
  TRACK 21 AUDIO
    TITLE "6:cjc137_3126"
    INDEX 01 00:15:52
  TRACK 22 AUDIO
    TITLE "0:"
    INDEX 01 00:16:61
  TRACK 23 AUDIO
    TITLE "5:cjc137_3127"
    INDEX 01 00:16:67
  TRACK 24 AUDIO
    TITLE "0:"
    INDEX 01 00:17:65
  TRACK 25 AUDIO
    TITLE "4:cjc137_3128"
    INDEX 01 00:18:72
  TRACK 26 AUDIO
    TITLE "0:"
    INDEX 01 00:20:04
  TRACK 27 AUDIO
    TITLE "6:cjc137_3129"
    INDEX 01 00:20:10
  TRACK 28 AUDIO
    TITLE "0:"
    INDEX 01 00:21:19
  TRACK 29 AUDIO
    TITLE "5:cjc137_3130"
    INDEX 01 00:21:23
  TRACK 30 AUDIO
    TITLE "0:"
    INDEX 01 00:22:32
  TRACK 31 AUDIO
    TITLE "4:cjc137_3131"
    INDEX 01 00:23:36
  TRACK 32 AUDIO
    TITLE "0:"
    INDEX 01 00:24:43
  TRACK 33 AUDIO
    TITLE "6:cjc137_3132"
    INDEX 01 00:24:49
  TRACK 34 AUDIO
    TITLE "0:"
    INDEX 01 00:25:62
  TRACK 35 AUDIO
    TITLE "5:cjc137_3133"
    INDEX 01 00:25:66
  TRACK 36 AUDIO
    TITLE "0:"
    INDEX 01 00:26:73
  TRACK 37 AUDIO
    TITLE "4:cjc137_3134"
    INDEX 01 00:28:06
  TRACK 38 AUDIO
    TITLE "0:"
    INDEX 01 00:29:07
  TRACK 39 AUDIO
    TITLE "6:cjc137_3135"
    INDEX 01 00:29:13
  TRACK 40 AUDIO
    TITLE "0:"
    INDEX 01 00:30:01
  TRACK 41 AUDIO
    TITLE "5:cjc137_3136"
    INDEX 01 00:30:08
  TRACK 42 AUDIO
    TITLE "0:"
    INDEX 01 00:31:10
  TRACK 43 AUDIO
    TITLE "4:cjc137_3137"
    INDEX 01 00:32:17
  TRACK 44 AUDIO
    TITLE "0:"
    INDEX 01 00:33:28
  TRACK 45 AUDIO
    TITLE "6:cjc137_3138"
    INDEX 01 00:33:38
  TRACK 46 AUDIO
    TITLE "0:"
    INDEX 01 00:34:59
  TRACK 47 AUDIO
    TITLE "5:cjc137_3139"
    INDEX 01 00:34:61
  TRACK 48 AUDIO
    TITLE "0:"
    INDEX 01 00:36:01
  TRACK 49 AUDIO
    TITLE "4:cjc137_3140"
    INDEX 01 00:37:08
  TRACK 50 AUDIO
    TITLE "0:"
    INDEX 01 00:38:22
  TRACK 51 AUDIO
    TITLE "6:cjc137_3141"
    INDEX 01 00:38:28
  TRACK 52 AUDIO
    TITLE "0:"
    INDEX 01 00:39:47
  TRACK 53 AUDIO
    TITLE "5:cjc137_3142"
    INDEX 01 00:39:52
  TRACK 54 AUDIO
    TITLE "0:"
    INDEX 01 00:40:64
  TRACK 55 AUDIO
    TITLE "4:cjc137_3143"
    INDEX 01 00:41:73
  TRACK 56 AUDIO
    TITLE "0:"
    INDEX 01 00:43:07
  TRACK 57 AUDIO
    TITLE "6:cjc137_3144"
    INDEX 01 00:43:13
  TRACK 58 AUDIO
    TITLE "0:"
    INDEX 01 00:44:11
  TRACK 59 AUDIO
    TITLE "5:cjc137_3145"
    INDEX 01 00:44:18
  TRACK 60 AUDIO
    TITLE "0:"
    INDEX 01 00:45:28
  TRACK 61 AUDIO
    TITLE "4:cjc137_3146"
    INDEX 01 00:46:35
  TRACK 62 AUDIO
    TITLE "0:"
    INDEX 01 00:47:40
  TRACK 63 AUDIO
    TITLE "6:cjc137_3147"
    INDEX 01 00:47:58
  TRACK 64 AUDIO
    TITLE "0:"
    INDEX 01 00:49:04
  TRACK 65 AUDIO
    TITLE "5:cjc137_3148"
    INDEX 01 00:49:08
  TRACK 66 AUDIO
    TITLE "0:"
    INDEX 01 00:50:17
  TRACK 67 AUDIO
    TITLE "4:cjc137_3149"
    INDEX 01 00:51:32
  TRACK 68 AUDIO
    TITLE "0:"
    INDEX 01 00:52:47
  TRACK 69 AUDIO
    TITLE "6:cjc137_3150"
    INDEX 01 00:52:53
  TRACK 70 AUDIO
    TITLE "0:"
    INDEX 01 00:53:53
  TRACK 71 AUDIO
    TITLE "5:cjc137_3151"
    INDEX 01 00:53:57
  TRACK 72 AUDIO
    TITLE "0:"
    INDEX 01 00:54:70
  TRACK 73 AUDIO
    TITLE "4:cjc137_3152"
    INDEX 01 00:56:06
  TRACK 74 AUDIO
    TITLE "0:"
    INDEX 01 00:57:23
  TRACK 75 AUDIO
    TITLE "6:cjc137_3153"
    INDEX 01 00:57:31
  TRACK 76 AUDIO
    TITLE "0:"
    INDEX 01 00:58:58
  TRACK 77 AUDIO
    TITLE "5:cjc137_3154"
    INDEX 01 00:58:64
  TRACK 78 AUDIO
    TITLE "0:"
    INDEX 01 01:00:08
  TRACK 79 AUDIO
    TITLE "4:cjc137_3155"
    INDEX 01 01:01:17
  TRACK 80 AUDIO
    TITLE "0:"
    INDEX 01 01:02:28
  TRACK 81 AUDIO
    TITLE "6:cjc137_3156"
    INDEX 01 01:02:38
  TRACK 82 AUDIO
    TITLE "0:"
    INDEX 01 01:03:59
  TRACK 83 AUDIO
    TITLE "5:cjc137_3157"
    INDEX 01 01:03:67
  TRACK 84 AUDIO
    TITLE "0:"
    INDEX 01 01:05:05
